<svg xmlns="http://www.w3.org/2000/svg" xmlns:xlink="http://www.w3.org/1999/xlink" width="512" zoomAndPan="magnify" viewBox="0 0 384 383.999986" height="512" preserveAspectRatio="xMidYMid meet" version="1.0"><defs><g/></defs><g fill="#004aad" fill-opacity="1"><g transform="translate(0.0000072, 283.719731)"><g><path d="M 140.21875 31.25 L 121.734375 0.8125 C 117.566406 1.539062 112.765625 1.90625 107.328125 1.90625 C 89.210938 1.90625 72.59375 -2.347656 57.46875 -10.859375 C 42.34375 -19.378906 30.34375 -31.15625 21.46875 -46.1875 C 12.59375 -61.226562 8.15625 -78.171875 8.15625 -97.015625 C 8.15625 -115.847656 12.59375 -132.78125 21.46875 -147.8125 C 30.34375 -162.851562 42.34375 -174.585938 57.46875 -183.015625 C 72.59375 -191.441406 89.210938 -195.65625 107.328125 -195.65625 C 125.453125 -195.65625 142.03125 -191.441406 157.0625 -183.015625 C 172.09375 -174.585938 184 -162.851562 192.78125 -147.8125 C 201.570312 -132.78125 205.96875 -115.847656 205.96875 -97.015625 C 205.96875 -81.609375 202.976562 -67.425781 197 -54.46875 C 191.03125 -41.519531 182.789062 -30.519531 172.28125 -21.46875 L 211.40625 31.25 Z M 69.5625 -97.015625 C 69.5625 -83.960938 72.820312 -73.585938 79.34375 -65.890625 C 85.863281 -58.191406 95.191406 -54.34375 107.328125 -54.34375 C 119.285156 -54.34375 128.523438 -58.191406 135.046875 -65.890625 C 141.566406 -73.585938 144.828125 -83.960938 144.828125 -97.015625 C 144.828125 -110.234375 141.566406 -120.691406 135.046875 -128.390625 C 128.523438 -136.085938 119.285156 -139.9375 107.328125 -139.9375 C 95.191406 -139.9375 85.863281 -136.085938 79.34375 -128.390625 C 72.820312 -120.691406 69.5625 -110.234375 69.5625 -97.015625 Z M 69.5625 -97.015625 "/></g></g></g><g fill="#004aad" fill-opacity="1"><g transform="translate(214.115488, 283.719731)"><g><path d="M 88.859375 1.90625 C 65.847656 1.90625 46.867188 -3.484375 31.921875 -14.265625 C 16.984375 -25.046875 8.878906 -40.851562 7.609375 -61.6875 L 71.734375 -61.6875 C 72.640625 -50.632812 77.53125 -45.109375 86.40625 -45.109375 C 89.664062 -45.109375 92.425781 -45.878906 94.6875 -47.421875 C 96.957031 -48.960938 98.09375 -51.363281 98.09375 -54.625 C 98.09375 -59.144531 95.644531 -62.804688 90.75 -65.609375 C 85.863281 -68.421875 78.257812 -71.640625 67.9375 -75.265625 C 55.613281 -79.617188 45.421875 -83.878906 37.359375 -88.046875 C 29.296875 -92.210938 22.363281 -98.28125 16.5625 -106.25 C 10.769531 -114.21875 7.96875 -124.453125 8.15625 -136.953125 C 8.15625 -149.453125 11.367188 -160.09375 17.796875 -168.875 C 24.222656 -177.664062 33.007812 -184.328125 44.15625 -188.859375 C 55.300781 -193.390625 67.847656 -195.65625 81.796875 -195.65625 C 105.347656 -195.65625 124.050781 -190.21875 137.90625 -179.34375 C 151.757812 -168.476562 159.050781 -153.171875 159.78125 -133.421875 L 94.828125 -133.421875 C 94.648438 -138.859375 93.289062 -142.753906 90.75 -145.109375 C 88.21875 -147.460938 85.140625 -148.640625 81.515625 -148.640625 C 78.984375 -148.640625 76.898438 -147.773438 75.265625 -146.046875 C 73.640625 -144.328125 72.828125 -141.929688 72.828125 -138.859375 C 72.828125 -134.503906 75.226562 -130.921875 80.03125 -128.109375 C 84.832031 -125.304688 92.484375 -121.914062 102.984375 -117.9375 C 115.117188 -113.40625 125.125 -109.054688 133 -104.890625 C 140.882812 -100.722656 147.722656 -94.925781 153.515625 -87.5 C 159.316406 -80.070312 162.21875 -70.742188 162.21875 -59.515625 C 162.21875 -47.734375 159.316406 -37.175781 153.515625 -27.84375 C 147.722656 -18.519531 139.300781 -11.226562 128.25 -5.96875 C 117.207031 -0.71875 104.078125 1.90625 88.859375 1.90625 Z M 88.859375 1.90625 "/></g></g></g></svg>